<?xml version="1.0" standalone="no"?>
<!DOCTYPE svg PUBLIC "-//W3C//DTD SVG 20010904//EN"
 "http://www.w3.org/TR/2001/REC-SVG-20010904/DTD/svg10.dtd">
<svg version="1.0" xmlns="http://www.w3.org/2000/svg"
 width="1080.000000pt" height="1080.000000pt" viewBox="0 0 1080.000000 1080.000000"
 preserveAspectRatio="xMidYMid meet">

<g transform="translate(0.000000,1080.000000) scale(0.100000,-0.100000)"
fill="#FFFFFF" stroke="none">
<path d="M4960 9700 c-560 -62 -1025 -197 -1500 -435 -158 -78 -178 -89 -296
-161 -560 -337 -1036 -790 -1391 -1324 -395 -594 -624 -1223 -708 -1940 -32
-278 -30 -735 6 -1010 30 -234 81 -479 120 -578 110 -276 349 -484 643 -557
224 -56 485 -18 685 101 92 54 121 78 326 273 67 63 320 302 490 461 210 198
410 386 435 410 8 8 51 49 95 90 44 41 123 115 175 165 53 49 165 155 250 235
85 80 180 169 211 198 31 28 62 52 69 52 6 0 92 -78 189 -173 97 -95 241 -235
320 -312 80 -77 163 -158 185 -180 23 -23 160 -155 305 -295 145 -140 312
-301 370 -358 148 -144 233 -198 371 -237 87 -25 270 -26 358 -2 215 58 392
214 471 414 51 131 52 135 49 1163 l-3 955 -417 3 -418 2 0 -761 0 -762 -67
64 c-85 80 -880 848 -972 939 -20 20 -159 155 -310 300 -151 146 -306 295
-344 333 -39 37 -74 67 -80 67 -14 0 -54 -35 -237 -209 -91 -86 -198 -187
-240 -226 -41 -38 -79 -75 -85 -81 -5 -6 -48 -46 -95 -90 -47 -43 -159 -149
-250 -234 -90 -85 -193 -182 -229 -215 -66 -62 -202 -191 -376 -355 -55 -52
-175 -165 -265 -250 -91 -85 -208 -195 -260 -245 -52 -49 -160 -151 -240 -226
-80 -75 -179 -168 -220 -207 -53 -50 -77 -66 -82 -57 -11 18 -64 280 -82 405
-52 355 -47 761 13 1112 44 251 143 587 232 785 237 530 544 941 974 1309 386
329 907 598 1390 717 204 50 302 67 525 93 180 20 624 15 790 -10 392 -59 671
-137 991 -281 419 -187 847 -494 1137 -815 137 -151 159 -178 249 -299 385
-515 612 -1096 684 -1751 16 -146 17 -540 0 -690 -49 -461 -174 -878 -382
-1278 -502 -965 -1444 -1657 -2504 -1841 -230 -40 -365 -51 -617 -51 -337 0
-575 29 -877 106 -264 68 -456 143 -825 323 -125 62 -230 110 -232 108 -2 -1
-85 -169 -184 -372 -145 -295 -178 -370 -168 -380 28 -24 542 -268 686 -325
703 -278 1496 -367 2252 -254 1021 153 1974 682 2656 1474 164 190 372 482
458 640 7 14 42 77 76 140 239 437 398 927 475 1457 22 151 45 458 45 598 0
362 -71 869 -171 1215 -68 236 -217 581 -343 793 -25 43 -46 80 -46 83 0 16
-281 418 -375 534 -201 251 -477 533 -715 730 -41 34 -84 69 -95 79 -116 97
-356 264 -535 371 -512 306 -995 461 -1650 530 -245 26 -634 26 -870 0z"/>
<path d="M4492 4154 c-158 -26 -306 -125 -391 -258 -184 -291 -76 -678 231
-825 232 -111 479 -71 659 108 117 117 172 249 171 409 -3 270 -190 507 -441
557 -111 22 -143 23 -229 9z"/>
</g>
</svg>
