<svg width="500" height="500" viewBox="0 0 500 500" fill="none" xmlns="http://www.w3.org/2000/svg">
<path d="M178.32 7.37889C137.726 19.6803 106.931 38.6596 72.9858 72.7521C47.4396 98.0578 40.0907 108.25 26.4427 136.719C17.6939 154.996 7.89539 181.356 5.0958 194.712C-4.35281 239.7 -0.153432 304.019 13.4946 322.646C30.992 346.546 60.3877 353.927 83.4843 339.868C89.7834 336.002 108.681 319.835 125.478 304.019C141.926 287.851 166.422 264.654 179.37 252.353L203.167 229.859L245.86 272.386C269.307 295.583 292.054 316.671 296.253 318.78C313.75 327.918 338.947 319.483 348.045 301.558C352.245 293.474 353.295 278.01 353.295 231.265V171.515H334.397C303.252 171.515 304.302 170.109 304.302 217.909V260.085L254.959 212.988C228.013 187.331 204.567 165.891 203.167 165.188C202.117 164.837 168.172 195.415 128.628 233.022C82.4344 276.604 55.4884 300.152 53.7387 297.341C48.1395 288.202 48.1395 225.992 53.7387 203.147C85.584 76.6182 216.115 12.6509 335.797 65.3712C358.894 75.5638 392.489 101.924 408.587 123.012C437.982 162.025 451.28 201.39 451.28 250.595C451.28 355.333 371.842 441.443 266.157 451.284C235.012 454.447 199.667 447.769 166.072 433.359C151.024 426.681 138.076 421.409 137.726 422.112C135.277 425.275 118.829 460.071 118.829 462.531C118.829 467.1 162.573 486.782 188.819 493.46C223.814 502.95 284.705 501.895 318.3 491.703C408.237 463.937 471.577 397.861 493.624 308.588C503.423 269.926 501.673 205.959 490.125 173.624C465.628 104.033 399.488 35.8479 332.648 10.1906C312.701 2.8098 302.902 1.40392 257.059 0.349515C210.516 -0.704892 201.767 0.349515 178.32 7.37889Z" fill="black"/>
<path d="M188.696 314.845C175.538 330.554 182.788 353.705 201.586 357.563C227.366 362.248 242.941 328.074 222.801 311.813C212.059 302.994 197.021 304.372 188.696 314.845Z" fill="black"/>
</svg>
